
Release info:

General
Format                                   : Matroska
Format version                           : Version 2
File size                                : 693 MiB
Duration                                 : 1h 34mn
Overall bit rate mode                    : Variable
Overall bit rate                         : 1 029 Kbps


Video
ID                                       : 1
Format                                   : MPEG-4 Visual
Format profile                           : Advanced Simple@L5
Format settings, BVOP                    : Yes
Format settings, QPel                    : No
Format settings, GMC                     : No warppoints
Format settings, Matrix                  : Custom
Codec ID                                 : V_MS/VFW/FOURCC / XVID
Codec ID/Hint                            : XviD
Duration                                 : 1h 34mn
Bit rate                                 : 894 Kbps
Width                                    : 640 pixels
Height                                   : 352 pixels
Display aspect ratio                     : 16:9
Frame rate mode                          : Constant
Frame rate                               : 25.000 fps
Color space                              : YUV
Chroma subsampling                       : 4:2:0
Bit depth                                : 8 bits
Scan type                                : Progressive
Compression mode                         : Lossy
Bits/(Pixel*Frame)                       : 0.159
Stream size                              : 602 MiB (87%)
Writing library                          : XviD 64
Language                                 : English
Default                                  : Yes
Forced                                   : No

Audio
ID                                       : 2
Format                                   : MPEG Audio
Format version                           : Version 1
Format profile                           : Layer 3
Mode                                     : Joint stereo
Mode extension                           : MS Stereo
Muxing mode                              : Header stripping
Codec ID                                 : A_MPEG/L3
Codec ID/Hint                            : MP3
Duration                                 : 1h 33mn
Bit rate mode                            : Variable
Bit rate                                 : 115 Kbps
Nominal bit rate                         : 128 Kbps
Channel(s)                               : 2 channels
Sampling rate                            : 48.0 KHz
Compression mode                         : Lossy
Delay relative to video                  : 6s 960ms
Stream size                              : 77.0 MiB (11%)
Language                                 : English
Default                                  : Yes
Forced                                   : No

Source:
credit to original movie ripper  (Thanks)

IMDB Info:

This is a story of a special relationship between two women, a writer and her maid.

Director: István Szabó
Writers: István Szabó (screenplay), Andrea Vészits (screenplay), 
Stars: Helen Mirren, Martina Gedeck and Károly Eperjes

Genres: Drama 
 
http://www.imdb.com/title/tt1194577/

Screen Shot:
 
http://www.shotpix.com/images/07181119245716138331.png 
http://www.shotpix.com/images/16159795418357015514.png 
http://www.shotpix.com/images/82840682749334175361.png 
http://www.shotpix.com/images/96419729806779117317.png 
http://www.shotpix.com/images/79229504492376446586.png 
http://www.shotpix.com/images/14943318696387157465.png